<svg width="24" height="24" viewBox="0 0 24 24" fill="none" xmlns="http://www.w3.org/2000/svg">
<g clip-path="url(#clip0_213_10)">
<path d="M3.28341 10.9397C3.00251 11.221 2.84473 11.6022 2.84473 11.9997C2.84473 12.3972 3.00251 12.7785 3.28341 13.0597L8.93941 18.7187C9.2208 19.0001 9.60245 19.1582 10.0004 19.1582C10.3984 19.1582 10.78 19.0001 11.0614 18.7187C11.3428 18.4373 11.5009 18.0557 11.5009 17.6577C11.5009 17.2598 11.3428 16.8781 11.0614 16.5967L7.96541 13.4997L19.5004 13.4997C19.8982 13.4997 20.2798 13.3417 20.5611 13.0604C20.8424 12.7791 21.0004 12.3975 21.0004 11.9997C21.0004 11.6019 20.8424 11.2204 20.5611 10.9391C20.2798 10.6578 19.8982 10.4997 19.5004 10.4997L7.96541 10.4997L11.0614 7.40372C11.2007 7.26439 11.3113 7.09898 11.3867 6.91693C11.4621 6.73489 11.5009 6.53977 11.5009 6.34272C11.5009 6.14568 11.4621 5.95056 11.3867 5.76851C11.3113 5.58647 11.2007 5.42105 11.0614 5.28172C10.9221 5.14239 10.7567 5.03187 10.5746 4.95646C10.3926 4.88105 10.1975 4.84224 10.0004 4.84224C9.80336 4.84224 9.60824 4.88105 9.4262 4.95646C9.24415 5.03187 9.07874 5.14239 8.93941 5.28172L3.28341 10.9397Z" fill="black"/>
</g>
<defs>
<clipPath id="clip0_213_10">
<rect width="24" height="24" fill="white" transform="matrix(0 -1 1 0 0 24)"/>
</clipPath>
</defs>
</svg>
