<svg width="24" height="24" viewBox="0 0 24 24" fill="none" xmlns="http://www.w3.org/2000/svg">
<g clip-path="url(#clip0_213_6)">
<path d="M20.7166 13.0603C20.9975 12.779 21.1553 12.3978 21.1553 12.0003C21.1553 11.6028 20.9975 11.2215 20.7166 10.9403L15.0606 5.28128C14.7792 4.99988 14.3975 4.8418 13.9996 4.8418C13.6016 4.8418 13.22 4.99988 12.9386 5.28128C12.6572 5.56267 12.4991 5.94433 12.4991 6.34228C12.4991 6.74023 12.6572 7.12188 12.9386 7.40328L16.0346 10.5003H4.49959C4.10177 10.5003 3.72024 10.6583 3.43893 10.9396C3.15763 11.2209 2.99959 11.6025 2.99959 12.0003C2.99959 12.3981 3.15763 12.7796 3.43893 13.0609C3.72024 13.3422 4.10177 13.5003 4.49959 13.5003H16.0346L12.9386 16.5963C12.7993 16.7356 12.6887 16.901 12.6133 17.0831C12.5379 17.2651 12.4991 17.4602 12.4991 17.6573C12.4991 17.8543 12.5379 18.0494 12.6133 18.2315C12.6887 18.4135 12.7993 18.5789 12.9386 18.7183C13.0779 18.8576 13.2433 18.9681 13.4254 19.0435C13.6074 19.1189 13.8025 19.1578 13.9996 19.1578C14.1966 19.1578 14.3918 19.1189 14.5738 19.0435C14.7558 18.9681 14.9213 18.8576 15.0606 18.7183L20.7166 13.0603Z" fill="black"/>
</g>
<defs>
<clipPath id="clip0_213_6">
<rect width="24" height="24" fill="white" transform="matrix(0 1 -1 0 24 0)"/>
</clipPath>
</defs>
</svg>
