<svg width="16" height="16" viewBox="0 0 16 16" fill="none" xmlns="http://www.w3.org/2000/svg">
<g clip-path="url(#clip0_356_34)">
<path d="M15.9974 4.0835C15.9974 3.5915 15.9559 3.1015 15.8384 2.6225C15.6274 1.75 15.1299 1.0835 14.3854 0.594C14.0024 0.344 13.5809 0.1905 13.1329 0.1095C12.7889 0.0494042 12.4406 0.0163034 12.0914 0.0105C12.0654 0.008 12.0369 0.0025 12.0079 0H3.99242C3.89075 0.00766667 3.78925 0.0136667 3.68792 0.018C3.19042 0.0465 2.69592 0.0985 2.22692 0.286C1.33642 0.6375 0.692918 1.252 0.317918 2.1375C0.187918 2.437 0.122418 2.7545 0.075918 3.0775C0.036918 3.338 0.015918 3.601 0.00841797 3.864C0.00841797 3.885 0.00341797 3.9055 0.00341797 3.9265V12.075L0.018918 12.3565C0.052918 12.901 0.122918 13.44 0.352418 13.94C0.784918 14.8855 1.51142 15.5075 2.50892 15.807C2.78742 15.893 3.07942 15.932 3.37092 15.958C3.74092 15.9945 4.11042 15.9995 4.48042 15.9995H11.8344C12.1834 15.9988 12.5324 15.9763 12.8814 15.932C13.4309 15.8615 13.9464 15.7 14.4129 15.393C14.9651 15.0353 15.4005 14.5237 15.6654 13.9215C15.7904 13.64 15.8609 13.341 15.9129 13.0385C15.9884 12.588 16.0039 12.132 16.0039 11.6765C16.0014 9.145 16.0039 6.614 16.0014 4.0825L15.9974 4.0835ZM11.7159 6.742V10.5495C11.7159 10.828 11.6769 11.1015 11.5519 11.354C11.3594 11.747 11.0469 11.9945 10.6274 12.1145C10.3951 12.1813 10.1555 12.2197 9.91392 12.229C9.61015 12.247 9.31039 12.1526 9.07169 11.9639C8.83299 11.7751 8.67202 11.5052 8.61942 11.2055C8.57106 10.9358 8.61264 10.6577 8.73775 10.414C8.86287 10.1703 9.06461 9.97439 9.31192 9.8565C9.52542 9.7525 9.75742 9.69 9.98892 9.643C10.2414 9.5885 10.4939 9.539 10.7439 9.4815C10.9289 9.44 11.0484 9.328 11.0849 9.1375C11.0954 9.096 11.0979 9.0515 11.0979 9.01V5.38C11.097 5.33858 11.091 5.29743 11.0799 5.2575C11.0539 5.156 10.9809 5.096 10.8769 5.101C10.7699 5.106 10.6659 5.1245 10.5619 5.1455C10.0536 5.2445 9.54659 5.346 9.04092 5.45L6.57492 5.9475C6.56442 5.95 6.55142 5.9555 6.54092 5.9555C6.35592 6.0075 6.29092 6.091 6.28292 6.2835C6.28042 6.312 6.28292 6.341 6.28292 6.3695C6.28042 8.104 6.28292 9.8385 6.28042 11.5725C6.28042 11.854 6.24892 12.13 6.13742 12.39C5.95242 12.817 5.62442 13.0855 5.18192 13.213C4.94801 13.2812 4.70644 13.3197 4.46292 13.3275C3.82492 13.351 3.29342 12.9265 3.18442 12.299C3.09042 11.7575 3.33792 11.174 3.95242 10.9135C4.19192 10.8145 4.43942 10.76 4.69192 10.708L5.26492 10.591C5.51992 10.5365 5.65292 10.375 5.66592 10.1145V4.0935C5.66658 4.00983 5.67608 3.92733 5.69442 3.846C5.74142 3.656 5.87692 3.5465 6.05892 3.502C6.22842 3.4575 6.40292 3.4265 6.57442 3.39C7.06392 3.291 7.55092 3.192 8.04042 3.0955L9.55342 2.788C10.0014 2.6995 10.4464 2.6085 10.8944 2.52C11.0404 2.4915 11.1889 2.46 11.3369 2.4495C11.5424 2.4315 11.6859 2.5615 11.7069 2.77C11.7119 2.81967 11.7146 2.86917 11.7149 2.9185V6.739L11.7159 6.742Z" fill="white"/>
</g>
<defs>
<clipPath id="clip0_356_34">
<rect width="16" height="16" fill="white"/>
</clipPath>
</defs>
</svg>
