<svg width="19" height="21" viewBox="0 0 19 21" fill="none" xmlns="http://www.w3.org/2000/svg">
<path fill-rule="evenodd" clip-rule="evenodd" d="M16.6708 0.20791C16.9573 0.160136 17.2507 0.175322 17.5307 0.252413C17.8107 0.329503 18.0706 0.466648 18.2922 0.654314C18.5139 0.84198 18.692 1.07566 18.8142 1.33912C18.9364 1.60258 18.9997 1.88949 18.9998 2.17991V13.9999C18.9996 14.8804 18.7089 15.7362 18.1728 16.4347C17.6366 17.1331 16.885 17.6351 16.0345 17.8629C15.1839 18.0906 14.282 18.0314 13.4686 17.6943C12.6552 17.3572 11.9757 16.7612 11.5355 15.9986C11.0954 15.236 10.9191 14.3495 11.0341 13.4766C11.1491 12.6036 11.5489 11.793 12.1716 11.1704C12.7942 10.5479 13.6049 10.1481 14.4779 10.0332C15.3508 9.91831 16.2373 10.0947 16.9998 10.5349V6.17991L6.99985 7.84691V14.9999C6.99985 15.0599 6.99485 15.1179 6.98485 15.1739C7.05664 15.9429 6.87207 16.714 6.4599 17.3672C6.04772 18.0203 5.43109 18.5188 4.70607 18.7849C3.98105 19.051 3.18836 19.0699 2.45151 18.8385C1.71466 18.6072 1.07502 18.1386 0.632263 17.5058C0.189501 16.873 -0.0315228 16.1115 0.00362873 15.34C0.0387802 14.5684 0.328132 13.8302 0.826603 13.2403C1.32507 12.6504 2.00467 12.2419 2.75951 12.0785C3.51435 11.9151 4.30203 12.0059 4.99985 12.3369V3.84691C4.99979 3.37347 5.16768 2.91536 5.47366 2.55409C5.77964 2.19281 6.20386 1.95179 6.67085 1.87391L16.6708 0.20791ZM6.99985 5.81991L16.9998 4.15291V2.17991L6.99985 3.84691V5.81991Z" fill="white"/>
</svg>
